<?xml version="1.0" encoding="UTF-8"?>
<svg version="1.1" xmlns="http://www.w3.org/2000/svg" width="1024" height="1024">
<path d="M0 0 C10.32384227 7.18171387 18.82905811 16.44014598 27.63954163 25.34629822 C29.45675577 27.17165922 31.27471546 28.99627828 33.09338379 30.82019043 C37.36722755 35.10932798 41.6346726 39.40472833 45.8986339 43.70368773 C54.00823185 51.87932344 62.13253987 60.04032555 70.25778008 68.20041084 C72.92509069 70.88170598 75.58856987 73.56676143 78.25149536 76.25241089 C79.87368404 77.88461626 81.49594849 79.51674631 83.11830139 81.14878845 C83.8605899 81.89938538 84.60287842 82.6499823 85.36766052 83.42332458 C86.04447372 84.1030986 86.72128693 84.78287262 87.41860962 85.48324585 C88.00717523 86.07662971 88.59574083 86.67001356 89.20214176 87.28137875 C90.66840634 88.76375649 90.66840634 88.76375649 92.69813538 89.66270447 C92.69813538 90.32270447 92.69813538 90.98270447 92.69813538 91.66270447 C93.35813538 91.66270447 94.01813538 91.66270447 94.69813538 91.66270447 C96.82313538 93.53770447 96.82313538 93.53770447 98.69813538 95.66270447 C98.69813538 96.32270447 98.69813538 96.98270447 98.69813538 97.66270447 C99.27789124 97.91793884 99.85764709 98.17317322 100.45497131 98.43614197 C102.9282885 99.78855223 104.59415647 101.30002971 106.58876038 103.28770447 C107.65223694 104.34731384 107.65223694 104.34731384 108.73719788 105.42832947 C109.46680725 106.16567322 110.19641663 106.90301697 110.94813538 107.66270447 C111.6932135 108.40004822 112.43829163 109.13739197 113.20594788 109.89707947 C113.909776 110.60348572 114.61360413 111.30989197 115.33876038 112.03770447 C115.98361389 112.68481384 116.62846741 113.33192322 117.29286194 113.99864197 C118.69813538 115.66270447 118.69813538 115.66270447 118.69813538 117.66270447 C119.27305725 117.91278259 119.84797913 118.16286072 120.44032288 118.42051697 C123.0083968 119.83340193 124.76058207 121.45946634 126.82313538 123.53770447 C127.5063385 124.21575134 128.18954163 124.89379822 128.89344788 125.59239197 C132.2183367 129.40665836 133.15818202 132.43620431 133.01454163 137.56895447 C132.31899316 142.17159616 130.00442256 145.47167792 126.57313538 148.60020447 C122.12657126 150.2434999 118.35641052 150.72938196 113.69813538 149.66270447 C109.9490946 147.41328 106.84932776 144.67884575 103.69813538 141.66270447 C102.77001038 140.77582947 101.84188538 139.88895447 100.88563538 138.97520447 C100.16376038 138.21207947 99.44188538 137.44895447 98.69813538 136.66270447 C97.77001038 135.77582947 96.84188538 134.88895447 95.88563538 133.97520447 C93.69813538 131.66270447 93.69813538 131.66270447 93.69813538 129.66270447 C93.03813538 129.66270447 92.37813538 129.66270447 91.69813538 129.66270447 C91.69813538 129.00270447 91.69813538 128.34270447 91.69813538 127.66270447 C91.12377747 127.41431824 90.54941956 127.16593201 89.95765686 126.91001892 C87.35871402 125.47533507 85.62853866 123.81952389 83.54579163 121.70567322 C82.38080139 120.53101501 82.38080139 120.53101501 81.192276 119.33262634 C80.38983459 118.51342712 79.58739319 117.69422791 78.76063538 116.85020447 C77.56277405 115.63880798 77.56277405 115.63880798 76.3407135 114.40293884 C74.80080401 112.84516794 73.26271693 111.28559284 71.72669983 109.72398376 C67.36954288 105.28483816 67.36954288 105.28483816 62.88563538 100.97520447 C61.69813538 99.66270447 61.69813538 99.66270447 61.69813538 97.66270447 C61.13610413 97.42551697 60.57407288 97.18832947 59.99501038 96.94395447 C57.17919496 95.3732275 55.21858122 93.44798982 52.94813538 91.16270447 C51.74930725 89.97161072 51.74930725 89.97161072 50.52626038 88.75645447 C48.69813538 86.66270447 48.69813538 86.66270447 48.69813538 84.66270447 C48.11547913 84.40489197 47.53282288 84.14707947 46.93251038 83.88145447 C44.51784507 82.5643643 42.8807336 81.11182063 40.94813538 79.16270447 C40.33454163 78.55426697 39.72094788 77.94582947 39.08876038 77.31895447 C37.69813538 75.66270447 37.69813538 75.66270447 37.69813538 73.66270447 C37.03813538 73.66270447 36.37813538 73.66270447 35.69813538 73.66270447 C35.69813538 73.00270447 35.69813538 72.34270447 35.69813538 71.66270447 C35.07938538 71.41520447 34.46063538 71.16770447 33.82313538 70.91270447 C31.29454911 69.42530078 30.97974533 68.22592438 29.69813538 65.66270447 C28.38280127 64.96119295 27.04695946 64.29744521 25.69813538 63.66270447 C23.44813538 61.66270447 23.44813538 61.66270447 21.69813538 59.66270447 C21.69813538 59.00270447 21.69813538 58.34270447 21.69813538 57.66270447 C21.12063538 57.41520447 20.54313538 57.16770447 19.94813538 56.91270447 C17.36873558 55.47970458 15.63691946 53.8784577 13.69813538 51.66270447 C13.69813538 51.00270447 13.69813538 50.34270447 13.69813538 49.66270447 C13.03813538 49.66270447 12.37813538 49.66270447 11.69813538 49.66270447 C11.69813538 49.00270447 11.69813538 48.34270447 11.69813538 47.66270447 C11.14126038 47.45645447 10.58438538 47.25020447 10.01063538 47.03770447 C7.44945541 45.5148407 6.0061989 43.67833038 4.17079163 41.36582947 C1.94880707 38.79610728 -0.59734428 36.66501383 -3.18077087 34.46739197 C-5.98476184 32.0816759 -8.71004565 29.61027655 -11.44248962 27.14317322 C-15.65340192 23.790367 -19.21822475 23.05621592 -24.53939819 23.26069641 C-33.99012565 24.63601397 -41.24727735 34.24642452 -47.61045837 40.74864197 C-48.6681625 41.8170442 -49.72669518 42.88462675 -50.78601074 43.95143127 C-53.54852356 46.73654093 -56.30270373 49.52972312 -59.054245 52.32566833 C-63.48044542 56.82256869 -67.91465485 61.31146235 -72.35782051 65.79159927 C-73.90562725 67.35612366 -75.44687895 68.9269058 -76.98776245 70.49824524 C-77.92870962 71.44964452 -78.86990377 72.40079962 -79.81138611 73.35166931 C-80.63251389 74.18628693 -81.45364166 75.02090454 -82.2996521 75.8808136 C-84.30186462 77.66270447 -84.30186462 77.66270447 -86.30186462 77.66270447 C-86.79686462 79.14770447 -86.79686462 79.14770447 -87.30186462 80.66270447 C-88.65142822 81.99226379 -88.65142822 81.99226379 -90.47886658 83.47080994 C-97.18241519 89.16538499 -103.2674388 95.50549355 -109.46983337 101.73301697 C-110.83625659 103.10130926 -112.20290373 104.46937798 -113.56976318 105.8372345 C-117.14892711 109.42019462 -120.72507927 113.00614585 -124.30058289 116.59275818 C-127.93656434 120.23898013 -131.57538349 123.88236769 -135.213974 127.52598572 C-141.08923522 133.41000795 -146.96279038 139.29572655 -152.83403015 145.1837616 C-153.35101974 145.70219635 -153.86800934 146.2206311 -154.40066528 146.754776 C-154.88880896 147.2455727 -155.37695263 147.7363694 -155.87988853 148.24203873 C-157.26770442 149.62857574 -158.67107222 150.9994911 -160.07476807 152.36994934 C-162.54023631 154.90810375 -163.97728975 157.31362387 -165.55186462 160.47520447 C-166.05202087 161.45102478 -166.55217712 162.42684509 -167.06748962 163.43223572 C-170.31415236 171.92903977 -169.4568959 181.41035099 -169.46299744 190.37510681 C-169.46763214 191.96595371 -169.47265767 193.55679951 -169.4780426 195.14764404 C-169.49110235 199.4514231 -169.49759848 203.75518661 -169.50205326 208.05898237 C-169.50499328 210.75199178 -169.50909972 213.44499701 -169.51355743 216.1380043 C-169.52721296 224.5763215 -169.53689016 233.01462908 -169.54075933 241.45295656 C-169.545241 251.1713846 -169.56280214 260.88967207 -169.59175992 270.60805738 C-169.61341041 278.13697799 -169.62346534 285.66585912 -169.62480044 293.19481051 C-169.62584569 297.68425901 -169.63169408 302.17357502 -169.64962006 306.66299057 C-169.66616004 310.88691031 -169.66822766 315.11059873 -169.65948105 319.33453941 C-169.65871395 320.87840713 -169.66300998 322.4222876 -169.6729393 323.96612358 C-169.73653187 334.47567542 -169.63931447 345.38455592 -162.30186462 353.66270447 C-156.23400451 357.96794745 -151.09529051 360.78353311 -143.59412575 360.79298973 C-142.17172944 360.79842625 -142.17172944 360.79842625 -140.72059786 360.8039726 C-139.68189496 360.80290435 -138.64319206 360.8018361 -137.57301331 360.80073547 C-136.46718631 360.80355675 -135.36135932 360.80637803 -134.22202241 360.80928481 C-130.5033495 360.81764159 -126.78470632 360.81896998 -123.06602478 360.82041931 C-120.40525101 360.82508667 -117.74448125 360.83016348 -115.08370972 360.83581543 C-109.34722176 360.84733904 -103.61073674 360.85558439 -97.87424088 360.86193466 C-88.80732028 360.87226188 -79.74043632 360.8928254 -70.67353821 360.91505432 C-67.57144368 360.92253392 -64.46934899 360.92994766 -61.36725426 360.93734169 C-60.59201599 360.93919226 -59.81677773 360.94104282 -59.0180474 360.94294947 C-50.19403691 360.96387517 -41.37002238 360.98270449 -32.54600525 361.00059509 C-31.73938451 361.00223327 -30.93276378 361.00387146 -30.10169999 361.00555928 C-17.02746395 361.03184962 -3.95322509 361.05049059 9.1210262 361.067187 C22.54350236 361.08460502 35.96592305 361.11344634 49.3883549 361.15207636 C57.66789396 361.17547842 65.94734262 361.18947112 74.22691502 361.191404 C79.90038457 361.1935127 85.57376416 361.20643618 91.24719332 361.22788332 C94.52085841 361.23991534 97.79430888 361.24543163 101.06799889 361.24117088 C104.61730139 361.23728875 108.16607393 361.25169086 111.71531677 361.27070618 C112.74955823 361.26517648 113.78379969 361.25964679 114.8493818 361.25394952 C121.51298231 361.31572868 125.89922829 362.23207463 131.07313538 366.72520447 C133.45498377 371.03085348 133.59079385 374.8531222 132.69813538 379.66270447 C131.00927605 383.04734467 128.76959242 385.14695681 125.32908732 386.80304974 C122.64398178 387.68039897 120.60408112 387.91425249 117.79040432 387.91718006 C116.82294889 387.92301225 115.85549346 387.92884445 114.8587212 387.93485337 C113.80367816 387.93107405 112.74863513 387.92729473 111.66162109 387.92340088 C109.97119709 387.9291392 109.97119709 387.9291392 108.2466231 387.93499345 C104.46210283 387.94533009 100.67773408 387.94132991 96.89320374 387.93736267 C94.18290263 387.9406149 91.47261001 387.94682722 88.76231384 387.95285034 C82.15821925 387.9656042 75.55416531 387.96738999 68.95006048 387.96505008 C63.5789009 387.96326668 58.20775364 387.96501705 52.83659554 387.96927452 C52.0719626 387.96986971 51.30732966 387.9704649 50.51952602 387.97107812 C48.96607347 387.9722899 47.41262091 387.97350403 45.85916836 387.9747205 C31.28635586 387.98559975 16.71356649 387.98343237 2.14075268 387.97733565 C-11.17512968 387.97217234 -24.49093876 387.98340576 -37.80680663 388.00243387 C-51.48921994 388.02183525 -65.17159863 388.03006385 -78.85402578 388.02631062 C-86.53159491 388.02440127 -94.20910175 388.02685966 -101.88665962 388.04102516 C-108.42662153 388.05296966 -114.96648288 388.05431 -121.50644625 388.04223499 C-124.83963855 388.03636619 -128.17249738 388.03683342 -131.50570107 388.0472374 C-135.12945752 388.05772971 -138.75272556 388.04958345 -142.37646484 388.03692627 C-143.41589283 388.04430055 -144.45532081 388.05167484 -145.52624661 388.05927259 C-159.66281528 387.95591985 -172.00478772 383.69969243 -182.55186462 374.10020447 C-193.90237795 361.89484077 -196.54464612 349.11352037 -196.91905212 332.98301697 C-196.94670969 331.92904409 -196.94670969 331.92904409 -196.97492599 330.85377884 C-197.61376069 306.17397174 -197.4518478 281.47502703 -197.43043494 256.7887938 C-197.42610119 251.21512288 -197.42918918 245.64147467 -197.43406212 240.06780517 C-197.43865327 234.58823084 -197.43921574 229.10866606 -197.43662345 223.62909043 C-197.43509663 220.39942262 -197.43518205 217.16977271 -197.43815994 213.94010544 C-197.44719616 201.40736879 -197.3661154 188.88757894 -196.89903259 176.3624115 C-196.86607149 175.38625319 -196.83311039 174.41009487 -196.79915047 173.404356 C-196.47992486 165.93678243 -195.28958359 159.5730093 -192.30186462 152.66270447 C-191.90225525 151.66625916 -191.50264587 150.66981384 -191.09092712 149.64317322 C-188.63190108 144.10681111 -185.68674658 139.70801689 -181.55967712 135.27598572 C-180.85241234 134.51611359 -180.85241234 134.51611359 -180.13085938 133.7408905 C-174.13755774 127.34933193 -167.95999088 121.13477327 -161.76451111 114.94004822 C-159.70572374 112.87902708 -157.65513012 110.8100614 -155.604599 108.74082947 C-154.29453922 107.42784328 -152.98401051 106.11532476 -151.67295837 104.80332947 C-151.06157516 104.18476074 -150.45019196 103.56619202 -149.82028198 102.92887878 C-145.53074823 98.66270447 -145.53074823 98.66270447 -143.30186462 98.66270447 C-142.80686462 97.17770447 -142.80686462 97.17770447 -142.30186462 95.66270447 C-141.64186462 95.66270447 -140.98186462 95.66270447 -140.30186462 95.66270447 C-139.80686462 94.17770447 -139.80686462 94.17770447 -139.30186462 92.66270447 C-137.97166443 91.35374451 -137.97166443 91.35374451 -136.1592865 89.89122009 C-129.98528077 84.64622265 -124.36933086 78.84046417 -118.66281128 73.09881592 C-116.54528375 70.96839321 -114.42453312 68.84122525 -112.30296326 66.71482849 C-107.79976814 62.20026843 -103.300522 57.68178571 -98.80186462 53.16270447 C-93.58416662 47.92131815 -88.36481507 42.6816007 -83.14120483 37.44610596 C-81.0631612 35.36163269 -78.98817928 33.27414526 -76.91331482 31.18650818 C-65.52206638 19.75175981 -65.52206638 19.75175981 -59.80792236 14.95983887 C-57.35011507 12.84298352 -55.20526074 10.46773267 -52.98936462 8.10020447 C-38.96494513 -6.34672661 -17.76525364 -10.32093463 0 0 Z " fill="#EC9C55" transform="translate(310.30186462402344,298.33729553222656)"/>
<path d="M0 0 C11.34375 -0.0825 22.6875 -0.165 34.375 -0.25 C37.93845215 -0.28641602 41.5019043 -0.32283203 45.17333984 -0.36035156 C49.5715332 -0.37841797 49.5715332 -0.37841797 51.63955688 -0.3817749 C53.06416848 -0.38786164 54.48876127 -0.40181299 55.91323853 -0.42230225 C68.52390743 -0.59440364 77.71849565 0.97281567 87.0859375 9.84375 C92.08584952 15.47630394 94.39391613 22.12797343 94.28125 29.6484375 C93.39924204 37.02300404 90.69277159 43.18303943 85 48 C83.97810417 49.31662701 82.97406433 50.64760344 82 52 C82.59167969 52.35191406 83.18335938 52.70382812 83.79296875 53.06640625 C90.66418446 57.35951492 95.66745016 62.03045471 98 70 C99.7031655 78.37389706 98.51074791 86.50209457 94.3828125 94.0546875 C88.77749532 101.9401337 80.43611501 107.10348187 71 109 C68.67746246 109.0879269 66.35251797 109.11764631 64.02832031 109.11352539 C62.97194933 109.11370619 62.97194933 109.11370619 61.89423752 109.11389065 C59.62216751 109.11314625 57.35018027 109.10553963 55.078125 109.09765625 C53.67236368 109.09618536 52.26660182 109.09516556 50.86083984 109.09460449 C45.65721819 109.08936861 40.45360828 109.07540736 35.25 109.0625 C23.6175 109.041875 11.985 109.02125 0 109 C0 73.03 0 37.06 0 0 Z M31 24 C31 29.94 31 35.88 31 42 C35.04207139 42.08108167 39.08250908 42.14054629 43.125 42.1875 C44.26710938 42.21263672 45.40921875 42.23777344 46.5859375 42.26367188 C54.72639385 42.39459478 54.72639385 42.39459478 62 39 C64.18869145 36.33550605 63.99787846 34.93953599 63.875 31.4375 C63.29177225 28.03199167 63.29177225 28.03199167 61.3125 26.125 C55.2370879 23.16939412 48.21700195 23.88221224 41.625 23.9375 C40.09166016 23.94426758 40.09166016 23.94426758 38.52734375 23.95117188 C36.01820377 23.96289683 33.50909414 23.98083035 31 24 Z M31 65 C31 71.6 31 78.2 31 85 C34.45838775 85.02725524 37.91655545 85.04696142 41.375 85.0625 C42.34050781 85.07087891 43.30601562 85.07925781 44.30078125 85.08789062 C55.66118784 85.56115697 55.66118784 85.56115697 66.0625 82.0625 C68.60099387 79.36023233 68.95881523 78.43655855 69.3125 74.6875 C68.95018869 70.41222654 68.03853708 68.95172173 65 66 C61.18988767 64.72996256 57.47775524 64.63476419 53.5 64.4375 C52.69498047 64.3957666 51.88996094 64.3540332 51.06054688 64.31103516 C40.75652826 63.11208717 40.75652826 63.11208717 31 65 Z " fill="#FEFEFE" transform="translate(283,491)"/>
<path d="M0 0 C0.96421875 -0.01611328 1.9284375 -0.03222656 2.921875 -0.04882812 C18.46261057 -0.05924417 33.29567768 6.10249896 44.4453125 16.94140625 C57.47652981 31.11694193 60.62646169 47.03095582 59.84277344 65.67431641 C58.9351979 76.66900394 53.67812989 86.95150496 46.625 95.3125 C45.965 95.3125 45.305 95.3125 44.625 95.3125 C44.41488281 95.88097656 44.20476562 96.44945312 43.98828125 97.03515625 C38.35117739 106.45186556 23.78284255 111.39431934 13.85546875 114.0546875 C1.441069 116.70842449 -10.1821273 115.31789519 -22.375 112.3125 C-24.03974384 111.96969272 -25.70575498 111.63267176 -27.375 111.3125 C-27.375 110.6525 -27.375 109.9925 -27.375 109.3125 C-28.25414062 109.06371094 -29.13328125 108.81492187 -30.0390625 108.55859375 C-41.31144405 104.34795006 -49.06147163 93.56953261 -54.6875 83.375 C-60.97468783 69.43141455 -61.99234349 51.68691729 -56.69140625 37.26171875 C-49.61765488 21.41399683 -38.70139082 10.31729585 -22.90625 3.171875 C-15.2841027 0.58410894 -8.01852634 -0.02658663 0 0 Z M-23.67578125 36.76953125 C-29.51307636 44.12211241 -31.41016656 53.0822648 -30.375 62.3125 C-28.83542191 70.75451987 -25.0940985 76.48714154 -19.1875 82.5625 C-11.8787628 87.1101587 -3.97517035 89.59591004 4.625 88.3125 C13.91540791 86.11350989 20.19181648 81.73949981 26 74.25 C30.30212417 66.47308324 30.73968744 57.99869082 29.625 49.3125 C27.73865119 43.14678963 24.54484788 38.4943707 19.625 34.3125 C18.861875 33.61125 18.09875 32.91 17.3125 32.1875 C4.77692265 23.44174836 -13.43504414 25.29867557 -23.67578125 36.76953125 Z " fill="#FEFEFE" transform="translate(692.375,488.6875)"/>
<path d="M0 0 C1.5230858 0.01496243 3.04612109 0.03564332 4.56907654 0.06056213 C5.81287582 0.07497345 5.81287582 0.07497345 7.08180237 0.0896759 C9.83602575 0.12278616 12.59009639 0.16307232 15.34422302 0.2033844 C17.24850925 0.22767378 19.15280121 0.25151792 21.05709839 0.27493286 C26.07954918 0.33789147 31.10189912 0.40692453 36.12425232 0.47718811 C41.24505503 0.54776548 46.3659295 0.61264576 51.48680115 0.67799377 C61.54221854 0.80715781 71.59753863 0.94273393 81.65281677 1.08229065 C81.84867031 5.06109293 82.03310347 9.04034221 82.21531677 13.01979065 C82.2994281 14.72425354 82.2994281 14.72425354 82.38523865 16.46315002 C82.43357849 17.54273987 82.48191833 18.62232971 82.53172302 19.7346344 C82.60242004 21.2349823 82.60242004 21.2349823 82.67454529 22.76564026 C82.65281677 25.08229065 82.65281677 25.08229065 81.65281677 26.08229065 C79.90352957 26.17594071 78.15045423 26.19973503 76.39866638 26.19581604 C75.2775798 26.19574051 74.15649323 26.19566498 73.00143433 26.19558716 C71.17177879 26.18784523 71.17177879 26.18784523 69.30516052 26.1799469 C68.06359695 26.17853195 66.82203339 26.177117 65.54284668 26.17565918 C62.23676187 26.17099656 58.93074531 26.16200562 55.62467957 26.1509552 C52.25320527 26.14073892 48.88172394 26.1361611 45.51023865 26.13111877 C38.89107659 26.1200646 32.27195606 26.10278725 25.65281677 26.08229065 C25.65281677 31.69229065 25.65281677 37.30229065 25.65281677 43.08229065 C42.48281677 43.08229065 59.31281677 43.08229065 76.65281677 43.08229065 C76.65281677 51.00229065 76.65281677 58.92229065 76.65281677 67.08229065 C75.07073945 68.66436797 73.46660647 68.20956584 71.27244568 68.21168518 C70.34122894 68.21483734 69.41001221 68.2179895 68.45057678 68.22123718 C67.4370816 68.21921295 66.42358643 68.21718872 65.37937927 68.21510315 C64.34469513 68.21605988 63.31001099 68.2170166 62.24397278 68.21800232 C60.04984985 68.2186844 57.85572492 68.2168282 55.66160583 68.21266174 C52.29925498 68.20732468 48.93703838 68.21260023 45.57469177 68.2190094 C43.44708731 68.21834841 41.31948293 68.21706682 39.19187927 68.21510315 C38.18243256 68.21712738 37.17298584 68.21915161 36.13294983 68.22123718 C35.19542877 68.21808502 34.25790771 68.21493286 33.29197693 68.21168518 C32.46670502 68.21088959 31.64143311 68.21009399 30.79115295 68.20927429 C28.65281677 68.08229065 28.65281677 68.08229065 25.65281677 67.08229065 C25.98281677 73.02229065 26.31281677 78.96229065 26.65281677 85.08229065 C30.22029724 85.06488831 30.22029724 85.06488831 33.85984802 85.0471344 C66.35246653 84.92442631 66.35246653 84.92442631 81.65281677 86.08229065 C82.86893485 90.83094218 82.8009837 95.46723498 82.77781677 100.33229065 C82.78168396 101.15986877 82.78555115 101.9874469 82.78953552 102.84010315 C82.77951012 108.9555973 82.77951012 108.9555973 81.65281677 110.08229065 C78.97493704 110.17742009 76.32292808 110.20784344 73.64476013 110.19581604 C72.80580704 110.19596207 71.96685394 110.19610809 71.10247803 110.19625854 C68.31584633 110.19555915 65.52928061 110.1877655 62.74266052 110.1799469 C60.81594886 110.17808282 58.88923672 110.17665887 56.96252441 110.17565918 C51.8809428 110.17183324 46.79938958 110.16200231 41.71781921 110.1509552 C36.53665043 110.14074271 31.35547708 110.13616191 26.17430115 110.13111877 C16.00046052 110.12038011 5.826641 110.10330278 -4.34718323 110.08229065 C-4.37051352 95.88773023 -4.38809663 81.69317278 -4.3989954 67.49859715 C-4.40422495 60.9082428 -4.4113239 54.31790128 -4.42262268 47.72755432 C-4.43344901 41.37337047 -4.43945952 35.019199 -4.44206047 28.66500664 C-4.44391518 26.23479454 -4.44753666 23.80458316 -4.45291328 21.3743763 C-4.46012033 17.98346083 -4.46117431 14.59259724 -4.46070862 11.20167542 C-4.46430389 10.18604019 -4.46789917 9.17040497 -4.47160339 8.12399292 C-4.47022873 7.20547546 -4.46885406 6.28695801 -4.46743774 5.34060669 C-4.46835954 4.537725 -4.46928133 3.73484331 -4.47023106 2.90763187 C-4.24732296 -0.39907698 -3.39738147 0.08352478 0 0 Z " fill="#FEFEFE" transform="translate(410.34718322753906,489.91770935058594)"/>
<path d="M0 0 C3.87433175 5.81149762 3.24360307 13.68579886 2.56542969 20.46630859 C1.13495871 26.8762515 -3.88444222 31.18661074 -8.50048828 35.54492188 C-10.52018539 37.50477123 -12.22229594 39.64707902 -13.9375 41.875 C-17.30331861 46.12911714 -20.70422264 50.35254641 -24.125 54.5625 C-24.67067627 55.2342627 -25.21635254 55.90602539 -25.77856445 56.59814453 C-30.62967804 62.56130741 -35.51625238 68.49504253 -40.41845703 74.41625977 C-40.97388184 75.08842529 -41.52930664 75.76059082 -42.1015625 76.453125 C-42.58963379 77.04254883 -43.07770508 77.63197266 -43.58056641 78.23925781 C-45.10144763 80.12584113 -46.55658319 82.05371194 -48 84 C-45.03 83.505 -45.03 83.505 -42 83 C-42 83.66 -42 84.32 -42 85 C-41.17862549 84.92346191 -40.35725098 84.84692383 -39.51098633 84.76806641 C-30.86523875 84.04622719 -22.41447622 83.965973 -13.75415039 84.296875 C-11.64426084 84.37663456 -9.53422198 84.44289966 -7.42382812 84.5078125 C2.86011358 84.86011358 2.86011358 84.86011358 4 86 C4 93.92 4 101.84 4 110 C-27.35 110 -58.7 110 -91 110 C-91 87.25123558 -91 87.25123558 -84.55737305 80.30493164 C-84.08855713 79.88590576 -83.61974121 79.46687988 -83.13671875 79.03515625 C-79.86712716 75.95700454 -77.20489774 72.57392745 -74.5 69 C-70.02752331 63.2304013 -65.36632826 57.64635844 -60.62890625 52.09375 C-56.67667773 47.45800993 -52.83419842 42.73349224 -49 38 C-48.22914063 37.05253906 -47.45828125 36.10507812 -46.6640625 35.12890625 C-45.56191406 33.76572266 -45.56191406 33.76572266 -44.4375 32.375 C-43.77621094 31.55773437 -43.11492188 30.74046875 -42.43359375 29.8984375 C-40.89956267 28.2634823 -40.89956267 28.2634823 -41 27 C-56.51 26.67 -72.02 26.34 -88 26 C-88.83378093 22.66487626 -89.11814364 20.37555768 -89.09765625 17.015625 C-89.09443359 16.08105469 -89.09121094 15.14648438 -89.08789062 14.18359375 C-89.07951172 13.21550781 -89.07113281 12.24742187 -89.0625 11.25 C-89.05798828 10.26644531 -89.05347656 9.28289062 -89.04882812 8.26953125 C-89.03706483 5.84629209 -89.02062684 3.42317727 -89 1 C-77.43062081 0.80008658 -65.86111001 0.61633236 -54.29114723 0.45341206 C-48.91919293 0.37725559 -43.54744613 0.29545877 -38.17578125 0.20092773 C-32.99530535 0.10996619 -27.81480422 0.03361679 -22.63395309 -0.03244972 C-20.65385229 -0.06029818 -18.67381933 -0.09348091 -16.69389725 -0.13199425 C-13.92824334 -0.18489516 -11.1629593 -0.21910666 -8.39697266 -0.2487793 C-7.57194748 -0.26891586 -6.7469223 -0.28905243 -5.89689636 -0.30979919 C-3.61929321 -0.32279968 -3.61929321 -0.32279968 0 0 Z " fill="#FEFEFE" transform="translate(857,490)"/>
<path d="M0 0 C4.53625429 3.38956998 8.93195109 7.19783649 12 12 C10.89041597 15.3287521 10.07455496 16.01489699 7.4375 18.1875 C3.64159177 21.38944417 0.18393375 24.80268219 -3.23828125 28.3984375 C-5 30 -5 30 -8 31 C-8.556875 30.46890625 -9.11375 29.9378125 -9.6875 29.390625 C-18.60949413 21.13175205 -26.07785647 17.61745134 -38.34765625 17.71875 C-44.99213376 18.2304103 -51.68563811 20.62913204 -56.6171875 25.29296875 C-63.0833601 33.27522137 -65.05275233 41.27431897 -64.453125 51.2890625 C-63.47043053 59.33699134 -59.9450821 65.51223191 -54 71 C-46.83369558 76.51254186 -38.49226613 77.61045247 -29.69921875 76.53125 C-19.98585569 74.61950271 -13.79101764 68.80411852 -7 62 C-4.60275688 64.22765452 -2.20746553 66.45739721 0.1875 68.6875 C1.19780273 69.62625977 1.19780273 69.62625977 2.22851562 70.58398438 C5.88748366 73.99307167 9.49104788 77.43653989 13 81 C2.21890988 93.9425164 -10.82969908 103.19523844 -28 105 C-46.67752518 106.27398466 -63.09552328 101.8878384 -77.390625 89.6171875 C-89.30227747 77.6698714 -94.86999082 63.26093673 -95.03515625 46.4140625 C-94.31186156 30.43101407 -87.96279032 16.5790971 -77 5 C-55.06587993 -14.03841681 -24.28570554 -15.42856587 0 0 Z " fill="#FEFEFE" transform="translate(607,499)"/>
<path d="M0 0 C10.08646147 -0.6057943 10.08646147 -0.6057943 13.4387207 1.6171875 C13.92945068 2.36226562 14.42018066 3.10734375 14.92578125 3.875 C15.49490234 4.69613281 16.06402344 5.51726563 16.65039062 6.36328125 C17.19888672 7.23339844 17.74738281 8.10351562 18.3125 9 C19.45437358 10.68753621 20.59630017 12.37503654 21.73828125 14.0625 C22.27662598 14.88878906 22.8149707 15.71507812 23.36962891 16.56640625 C25.41793174 19.62383102 27.64328538 22.51854166 29.92260742 25.40625 C31 27 31 27 31 29 C31.66 29 32.32 29 33 29 C33.495 29.99 33.495 29.99 34 31 C33.99476318 30.09644775 33.98952637 29.19289551 33.98413086 28.26196289 C33.96712314 24.92048511 33.95456667 21.57905308 33.94506836 18.23754883 C33.94002899 16.78929927 33.93319747 15.34105483 33.92456055 13.89282227 C33.91247753 11.81525412 33.90676789 9.73775303 33.90234375 7.66015625 C33.89710693 6.40855713 33.89187012 5.15695801 33.88647461 3.86743164 C34 1 34 1 35 0 C38.96 0 42.92 0 47 0 C47.33 18.15 47.66 36.3 48 55 C45.01002175 56.49498913 42.29957225 56.11577446 39 56 C35.02410331 54.6747011 33.70430734 52.13281281 31.4375 48.8125 C30.54959598 47.54158505 29.6615715 46.27075425 28.7734375 45 C28.31807617 44.34257813 27.86271484 43.68515625 27.39355469 43.0078125 C25.1392575 39.75985523 22.85271509 36.53518114 20.5625 33.3125 C20.14991943 32.72509033 19.73733887 32.13768066 19.31225586 31.5324707 C17.3476269 28.76123733 15.41545563 26.41545563 13 24 C12.67 34.23 12.34 44.46 12 55 C8.04597945 55.79080411 4.96646209 56.18029373 1 56 C0 55 0 55 -0.12025452 52.79173279 C-0.11803391 51.81688431 -0.11581329 50.84203583 -0.11352539 49.83764648 C-0.11344986 48.73658066 -0.11337433 47.63551483 -0.11329651 46.50108337 C-0.10813522 45.3031868 -0.10297394 44.10529022 -0.09765625 42.87109375 C-0.0962413 41.65172623 -0.09482635 40.4323587 -0.09336853 39.17604065 C-0.08774967 35.2631693 -0.07519396 31.35035419 -0.0625 27.4375 C-0.05748743 24.79231853 -0.0529241 22.14713617 -0.04882812 19.50195312 C-0.03777411 13.00128274 -0.02101764 6.50064539 0 0 Z M11 20 C12 22 12 22 12 22 Z " fill="#FEFEFE" transform="translate(632,670)"/>
<path d="M0 0 C27 0 27 0 35 3 C40.19985777 8.31049304 41.35878702 12.2204843 41.28515625 19.42578125 C40.74257259 24.32389952 38.51971083 27.6143813 34.875 30.9375 C33 32 33 32 31 32 C33.28791039 35.46083212 35.58096051 38.91822817 37.875 42.375 C38.52597656 43.35984375 39.17695312 44.3446875 39.84765625 45.359375 C40.47285156 46.30039062 41.09804688 47.24140625 41.7421875 48.2109375 C42.3182373 49.08024902 42.89428711 49.94956055 43.48779297 50.84521484 C44.96055723 53.07562592 44.96055723 53.07562592 47 55 C45.125 55.5 45.125 55.5 42 56 C41.27167969 56.1959375 40.54335938 56.391875 39.79296875 56.59375 C36.66493583 57.10605775 34.99680667 57.12596783 32 56 C28.24714616 52.17304185 25.66451598 47.36173667 23.02392578 42.73632812 C21.82572749 40.70447637 20.47468497 38.8397999 19 37 C15.98559632 37.67377516 15.98559632 37.67377516 14.8515625 39.640625 C13.74775785 42.69887276 13.56949072 45.50848798 13.375 48.75 C13.30023437 49.92046875 13.22546875 51.0909375 13.1484375 52.296875 C13.09945312 53.18890625 13.05046875 54.0809375 13 55 C8.05504989 56.39076722 5.68820298 55.71102537 0 55 C0 36.85 0 18.7 0 0 Z M13 10 C13 14.95 13 19.9 13 25 C20.54000114 25.67673445 20.54000114 25.67673445 27.25 22.9375 C29.31454693 20.04188882 29.31454693 20.04188882 29 16.3125 C28.30616669 12.74460887 28.30616669 12.74460887 25 11 C20.78561077 9.82933632 17.58740309 10 13 10 Z " fill="#FEFEFE" transform="translate(505,670)"/>
<path d="M0 0 C3.96 0 7.92 0 12 0 C12.66 1.60875 13.32 3.2175 14 4.875 C15.83453119 9.28918008 17.73780162 13.66110504 19.70703125 18.01660156 C25.20250537 30.18436946 30.11000145 42.57879997 35 55 C30.88807097 55.86901593 27.21762631 56.39052095 23 56 C20 52 20 52 17 42 C9.74 42.33 2.48 42.66 -5 43 C-5.804375 44.959375 -6.60875 46.91875 -7.4375 48.9375 C-9.875 54.875 -9.875 54.875 -11 56 C-13.01964199 56.07244053 -15.04167124 56.08377188 -17.0625 56.0625 C-18.71958984 56.04896484 -18.71958984 56.04896484 -20.41015625 56.03515625 C-21.26480469 56.02355469 -22.11945312 56.01195312 -23 56 C-23.33 55.34 -23.66 54.68 -24 54 C-23.34 54 -22.68 54 -22 54 C-21.87710098 53.27947952 -21.75420197 52.55895905 -21.62757874 51.81660461 C-20.9981182 48.99155439 -20.10421418 46.58880772 -18.95874023 43.93432617 C-18.53837997 42.95368698 -18.11801971 41.97304779 -17.68492126 40.96269226 C-17.23073318 39.9166835 -16.7765451 38.87067474 -16.30859375 37.79296875 C-15.84389175 36.71243729 -15.37918976 35.63190582 -14.90040588 34.51863098 C-13.41729588 31.07295 -11.92749196 27.63020987 -10.4375 24.1875 C-9.42989586 21.84980013 -8.42272914 19.51191167 -7.41601562 17.17382812 C-4.94907815 11.44701917 -2.47613386 5.72283831 0 0 Z M5 15 C4.1605118 17.10171867 3.32860344 19.20646625 2.5 21.3125 C2.0359375 22.48425781 1.571875 23.65601563 1.09375 24.86328125 C-0.16462513 27.91846448 -0.16462513 27.91846448 0 31 C3.96 31 7.92 31 12 31 C11.22181136 27.10905678 10.31126232 23.86563783 8.9375 20.1875 C8.57527344 19.21167969 8.21304688 18.23585938 7.83984375 17.23046875 C7.56269531 16.49441406 7.28554688 15.75835938 7 15 C6.34 15 5.68 15 5 15 Z " fill="#FEFEFE" transform="translate(776,670)"/>
<path d="M0 0 C12.21 0 24.42 0 37 0 C37 3.3 37 6.6 37 10 C29.08 10 21.16 10 13 10 C13 13.63 13 17.26 13 21 C19.93 21 26.86 21 34 21 C35 26 35 26 34 32 C27.07 32 20.14 32 13 32 C13 36.29 13 40.58 13 45 C14.73636719 44.89171875 14.73636719 44.89171875 16.5078125 44.78125 C18.04686922 44.68740508 19.58593204 44.59366039 21.125 44.5 C21.88554688 44.45230469 22.64609375 44.40460937 23.4296875 44.35546875 C31.8754444 43.84581101 31.8754444 43.84581101 36 44 C37 45 37 45 37.09765625 47.28515625 C37.08605469 48.20167969 37.07445312 49.11820313 37.0625 50.0625 C37.05347656 50.98160156 37.04445313 51.90070312 37.03515625 52.84765625 C37.02355469 53.55792969 37.01195312 54.26820313 37 55 C32.87391966 55.99069216 29.00287844 56.1290379 24.765625 56.1328125 C23.74767853 56.13424759 23.74767853 56.13424759 22.70916748 56.13571167 C21.28381253 56.13638898 19.85845441 56.13456614 18.43310547 56.13037109 C16.24309472 56.12498301 14.05328595 56.13034818 11.86328125 56.13671875 C10.47656205 56.13605854 9.08984297 56.13477857 7.703125 56.1328125 C6.44145508 56.13168457 5.17978516 56.13055664 3.87988281 56.12939453 C1 56 1 56 0 55 C-0.0935919 53.28134591 -0.11744611 51.55884256 -0.11352539 49.83764648 C-0.11344986 48.73658066 -0.11337433 47.63551483 -0.11329651 46.50108337 C-0.10813522 45.3031868 -0.10297394 44.10529022 -0.09765625 42.87109375 C-0.0962413 41.65172623 -0.09482635 40.4323587 -0.09336853 39.17604065 C-0.08774967 35.2631693 -0.07519396 31.35035419 -0.0625 27.4375 C-0.05748743 24.79231853 -0.0529241 22.14713617 -0.04882812 19.50195312 C-0.03862296 13.00126274 -0.01905121 6.50069467 0 0 Z " fill="#FEFEFE" transform="translate(571,670)"/>
<path d="M0 0 C-0.99 3.3 -1.98 6.6 -3 10 C-8.7109375 8.140625 -8.7109375 8.140625 -11.3125 6.875 C-15.56405553 5.49077262 -20.91047133 4.95523567 -25 7 C-25.65772428 10.02934491 -25.65772428 10.02934491 -26 13 C-25.31035156 13.17015625 -24.62070312 13.3403125 -23.91015625 13.515625 C-18.31078325 14.9596334 -13.17909718 16.68842287 -7.94921875 19.1484375 C-5.67118842 20.14364915 -3.46353401 20.68212464 -1 21 C-1 21.99 -1 22.98 -1 24 C-0.67773438 24.61230469 -0.35546875 25.22460938 -0.0234375 25.85546875 C2.1666121 30.44454216 1.75749002 36.26998563 0.41796875 41.09765625 C-1.66027283 45.41546411 -4.93965484 48.00416792 -9.1796875 50.1171875 C-17.76993303 52.80610092 -26.87678678 51.76709138 -35.046875 48.265625 C-37.40576581 46.73706375 -38.67116781 45.48649278 -40 43 C-39.63671875 40.640625 -39.63671875 40.640625 -38.6875 38.25 C-38.38199219 37.45078125 -38.07648437 36.6515625 -37.76171875 35.828125 C-37.51035156 35.22484375 -37.25898437 34.6215625 -37 34 C-34.1768974 35.11213133 -31.46781053 36.26609473 -28.75 37.625 C-23.75475916 39.45658831 -18.71252357 40.21853468 -13.73046875 37.98046875 C-13.15941406 37.65691406 -12.58835937 37.33335937 -12 37 C-12 34.69 -12 32.38 -12 30 C-12.68964844 29.82984375 -13.37929688 29.6596875 -14.08984375 29.484375 C-31.00166006 25.12302868 -31.00166006 25.12302868 -37 18 C-38.97436212 14.05127576 -38.43829693 9.30383233 -38 5 C-35.82211093 0.5635593 -33.08564574 -2.24218913 -29 -5 C-18.60195462 -8.44306139 -8.76372209 -5.84248139 0 0 Z " fill="#FCFDFD" transform="translate(921,675)"/>
<path d="M0 0 C1.72473684 0.04239196 3.44921882 0.09607409 5.17333984 0.15869141 C6.53415176 0.19623032 6.53415176 0.19623032 7.92245483 0.23452759 C10.82676868 0.31685455 13.73041529 0.41339457 16.63427734 0.51025391 C18.60039571 0.56848051 20.56654165 0.62578406 22.53271484 0.68212891 C27.35862107 0.82245222 32.18397596 0.97552589 37.00927734 1.13525391 C37.00927734 4.43525391 37.00927734 7.73525391 37.00927734 11.13525391 C32.05927734 11.13525391 27.10927734 11.13525391 22.00927734 11.13525391 C22.00927734 26.31525391 22.00927734 41.49525391 22.00927734 57.13525391 C18.04927734 57.13525391 14.08927734 57.13525391 10.00927734 57.13525391 C10.00927734 41.95525391 10.00927734 26.77525391 10.00927734 11.13525391 C5.05927734 11.13525391 0.10927734 11.13525391 -4.99072266 11.13525391 C-5.96728516 4.29931641 -5.96728516 4.29931641 -5.99072266 2.13525391 C-3.99072266 0.13525391 -3.99072266 0.13525391 0 0 Z " fill="#FEFEFE" transform="translate(706.99072265625,668.86474609375)"/>
<path d="M0 0 C3.96 0 7.92 0 12 0 C12.02505615 1.26183105 12.0501123 2.52366211 12.07592773 3.82373047 C12.16992106 8.49408569 12.27016131 13.16428937 12.37231445 17.83447266 C12.41569395 19.85787416 12.45736678 21.88131299 12.49731445 23.90478516 C12.55494408 26.80903384 12.6186594 29.71309411 12.68359375 32.6171875 C12.70030624 33.52556366 12.71701874 34.43393982 12.73423767 35.36984253 C12.75418289 36.21056305 12.77412811 37.05128357 12.79467773 37.91748047 C12.81022202 38.65916473 12.8257663 39.400849 12.84178162 40.16500854 C12.89473496 42.09674104 12.89473496 42.09674104 14 44 C14.60062256 43.99476318 15.20124512 43.98952637 15.82006836 43.98413086 C18.52586838 43.96341986 21.23165177 43.95035875 23.9375 43.9375 C24.88302734 43.92912109 25.82855469 43.92074219 26.80273438 43.91210938 C28.15141602 43.90727539 28.15141602 43.90727539 29.52734375 43.90234375 C30.35999756 43.89710693 31.19265137 43.89187012 32.05053711 43.88647461 C34 44 34 44 35 45 C35.07205511 46.68608966 35.08386068 48.37500659 35.0625 50.0625 C35.05347656 50.98160156 35.04445313 51.90070312 35.03515625 52.84765625 C35.02355469 53.55792969 35.01195312 54.26820313 35 55 C31.84678627 57.14418534 29.8203273 56.95685666 26.16308594 56.29296875 C21.52387272 55.66463287 16.79691638 55.94174668 12.125 56 C10.04432125 56.02537413 7.96358408 56.04645292 5.8828125 56.0625 C4.96902832 56.07410156 4.05524414 56.08570313 3.11376953 56.09765625 C1 56 1 56 0 55 C-0.0935919 53.28134591 -0.11744611 51.55884256 -0.11352539 49.83764648 C-0.11344986 48.73658066 -0.11337433 47.63551483 -0.11329651 46.50108337 C-0.10813522 45.3031868 -0.10297394 44.10529022 -0.09765625 42.87109375 C-0.0962413 41.65172623 -0.09482635 40.4323587 -0.09336853 39.17604065 C-0.08774967 35.2631693 -0.07519396 31.35035419 -0.0625 27.4375 C-0.05748743 24.79231853 -0.0529241 22.14713617 -0.04882812 19.50195312 C-0.03777411 13.00128026 -0.02049683 6.50064968 0 0 Z " fill="#FDFDFD" transform="translate(829,670)"/>
<path d="M0 0 C0.33 0 0.66 0 1 0 C1.02318207 11.37014649 1.04094502 22.74028734 1.05181217 34.11045265 C1.05702815 39.39021261 1.0641025 44.66995639 1.07543945 49.94970703 C1.08631395 55.04604628 1.09228653 60.14236998 1.09487724 65.23871994 C1.09672326 67.18194193 1.10032805 69.12516309 1.10573006 71.06837845 C1.113001 73.79251183 1.11398838 76.51658112 1.11352539 79.24072266 C1.11712067 80.04201599 1.12071594 80.84330933 1.12442017 81.66888428 C1.1166658 85.8922003 0.8362168 89.83923704 0 94 C-0.33 94 -0.66 94 -1 94 C-2.16558518 86.61410228 -2.14441834 79.3174696 -2.1328125 71.8515625 C-2.13348825 70.47122175 -2.13446053 69.09088112 -2.13571167 67.71054077 C-2.1371808 64.82085026 -2.13506271 61.93119078 -2.13037109 59.04150391 C-2.12472717 55.39290997 -2.12801959 51.74438978 -2.13380814 48.09579849 C-2.18893998 7.28804466 -2.18893998 7.28804466 0 0 Z " fill="#EE9847" transform="translate(115,466)"/>
<path d="M0 0 C3.51772155 0.5815737 5.15428831 1.79001528 7.63525391 4.31054688 C8.32922272 5.00796997 9.02319153 5.70539307 9.7381897 6.4239502 C10.47685272 7.18123413 11.21551575 7.93851807 11.9765625 8.71875 C12.74302094 9.49182495 13.50947937 10.2648999 14.29916382 11.06140137 C16.74829139 13.53395437 19.18704441 16.01643476 21.625 18.5 C24.07179268 20.9818154 26.52069184 23.46149997 28.97225952 25.93859863 C30.49791862 27.48127939 32.0204862 29.02702468 33.53970337 30.5760498 C34.22736786 31.2734729 34.91503235 31.970896 35.62353516 32.68945312 C36.53143295 33.61425476 36.53143295 33.61425476 37.45767212 34.55773926 C38.95742553 36.0971547 38.95742553 36.0971547 41 37 C41 37.66 41 38.32 41 39 C41.66 39 42.32 39 43 39 C45.125 40.875 45.125 40.875 47 43 C47 43.66 47 44.32 47 45 C47.88993652 45.40424194 47.88993652 45.40424194 48.79785156 45.81665039 C52.35925406 47.73041069 54.91813373 50.59007403 57.75 53.4375 C58.65298828 54.31631836 58.65298828 54.31631836 59.57421875 55.21289062 C60.14269531 55.78072266 60.71117187 56.34855469 61.296875 56.93359375 C61.81604492 57.44978271 62.33521484 57.96597168 62.87011719 58.49780273 C64 60 64 60 64 63 C63.34 63 62.68 63 62 63 C60.484375 61.42578125 60.484375 61.42578125 58.75 59.3125 C56.49924272 56.64650867 54.29950455 54.28989909 51.5625 52.125 C50.2940625 51.073125 50.2940625 51.073125 49 50 C49 49.34 49 48.68 49 48 C48.360625 47.731875 47.72125 47.46375 47.0625 47.1875 C45 46 45 46 44 43 C43.34 43 42.68 43 42 43 C40.7734375 41.71484375 40.7734375 41.71484375 39.375 39.9375 C37.29725243 37.41793998 35.20768614 35.23373182 32.6953125 33.15234375 C26.6448995 27.93356676 21.0708259 22.21993013 15.43359375 16.56396484 C13.48031423 14.60525954 11.52166177 12.65203861 9.5625 10.69921875 C8.32259532 9.45865442 7.08300026 8.21778055 5.84375 6.9765625 C5.25638062 6.39121735 4.66901123 5.80587219 4.06384277 5.20278931 C0 1.11499206 0 1.11499206 0 0 Z " fill="#F29C4A" transform="translate(362,351)"/>
<path d="M0 0 C0.99 0.33 1.98 0.66 3 1 C1.38405168 3.04119788 -0.2856382 5.04072937 -2 7 C-2.66 7 -3.32 7 -4 7 C-4 7.66 -4 8.32 -4 9 C-5.65002828 10.35386936 -7.3174387 11.68678142 -9 13 C-9.33 13.66 -9.66 14.32 -10 15 C-10.66 15 -11.32 15 -12 15 C-12 15.66 -12 16.32 -12 17 C-13.328125 18.3046875 -13.328125 18.3046875 -15.25 19.875 C-20.67413499 24.47729636 -25.6130307 29.53078118 -30.60546875 34.58935547 C-32.72741126 36.73581622 -34.86400536 38.86753593 -37 41 C-37.63164062 41.63164062 -38.26328125 42.26328125 -38.9140625 42.9140625 C-41.609375 45.609375 -44.3046875 48.3046875 -47 51 C-47.66 50.67 -48.32 50.34 -49 50 C-48.67 49.01 -48.34 48.02 -48 47 C-47.34 47 -46.68 47 -46 47 C-45.67 46.01 -45.34 45.02 -45 44 C-44.34 44 -43.68 44 -43 44 C-42.67 43.01 -42.34 42.02 -42 41 C-40.44128418 39.46128845 -40.44128418 39.46128845 -38.45117188 37.82006836 C-34.00447312 34.04478749 -29.88904585 30.0168857 -25.78125 25.87890625 C-25.03790405 25.13414536 -24.29455811 24.38938446 -23.52868652 23.62205505 C-21.18340699 21.27123255 -18.84165164 18.91693569 -16.5 16.5625 C-14.89867039 14.95614801 -13.29711002 13.35002603 -11.6953125 11.74414062 C-7.79420527 7.83208015 -3.8959758 3.91717048 0 0 Z " fill="#F09946" transform="translate(213,350)"/>
<path d="M0 0 C0.66 0 1.32 0 2 0 C1.0623214 3.86792423 -0.66164643 5.74692523 -3.62109375 8.21704102 C-7.79778012 11.78836733 -11.69394785 15.5649367 -15.5625 19.46484375 C-16.57763672 20.48210289 -16.57763672 20.48210289 -17.61328125 21.51991272 C-19.74457675 23.65674305 -21.87234218 25.79704823 -24 27.9375 C-25.45679779 29.39932123 -26.91382701 30.86091187 -28.37109375 32.32226562 C-31.91673973 35.878854 -35.45922739 39.43856016 -39 43 C-39.99 42.67 -40.98 42.34 -42 42 C-39.04974274 38.99196428 -36.08850331 35.9949821 -33.125 33 C-32.28324219 32.14148438 -31.44148437 31.28296875 -30.57421875 30.3984375 C-29.76855469 29.58632813 -28.96289062 28.77421875 -28.1328125 27.9375 C-27.38918457 27.18339844 -26.64555664 26.42929687 -25.87939453 25.65234375 C-24 24 -24 24 -22 24 C-22 23.34 -22 22.68 -22 22 C-19.646679 19.44496577 -17.24619234 17.19079907 -14.5 15.0625 C-11.84375191 13.0007716 -11.84375191 13.0007716 -9.5 10 C-7.1777811 7.21333733 -4.83824909 5.22457361 -2 3 C-1.34 2.01 -0.68 1.02 0 0 Z " fill="#F19844" transform="translate(223,374)"/>
<path d="M0 0 C-0.60005859 0.38422119 -1.20011719 0.76844238 -1.81835938 1.16430664 C-8.8789644 5.87069408 -14.63184724 11.33655376 -20.5 17.4375 C-22.25592372 19.25305408 -24.01610952 21.06449921 -25.78125 22.87109375 C-26.54501953 23.66443115 -27.30878906 24.45776855 -28.09570312 25.27514648 C-30 27 -30 27 -32 27 C-31.67587628 23.97484531 -31.10171348 23.08758661 -28.75 21.0625 C-27.8425 20.381875 -26.935 19.70125 -26 19 C-23.82040323 16.86859159 -21.68341717 14.69991425 -19.55371094 12.51879883 C-18.03879039 10.96791504 -16.51944987 9.42144517 -15 7.875 C-14.49210937 7.35035156 -13.98421875 6.82570313 -13.4609375 6.28515625 C-5.57119431 -1.7057375 -5.57119431 -1.7057375 0 0 Z " fill="#F09946" transform="translate(272,299)"/>
<path d="M0 0 C4.6618673 0.86733599 7.09327098 3.7132693 10.296875 7.00390625 C11.18732513 7.90072365 11.18732513 7.90072365 12.09576416 8.81565857 C13.98767195 10.72434102 15.86887499 12.6431954 17.75 14.5625 C19.03186002 15.85940836 20.3144043 17.15564078 21.59765625 18.45117188 C24.73976072 21.62632957 27.87230539 24.81064946 31 28 C30.67 28.99 30.34 29.98 30 31 C25.72437647 26.74901437 21.45198597 22.49481623 17.18261719 18.23754883 C15.72843396 16.78840807 14.27335638 15.34016422 12.81738281 13.89282227 C10.73008678 11.81759563 8.64598208 9.73921109 6.5625 7.66015625 C5.90628662 7.00910416 5.25007324 6.35805206 4.57397461 5.68727112 C3.0302211 4.14371174 1.51217329 2.57451022 0 1 C0 0.67 0 0.34 0 0 Z " fill="#F29B49" transform="translate(330,319)"/>
<path d="M0 0 C0.99 0.33 1.98 0.66 3 1 C2.5153125 1.40347656 2.030625 1.80695313 1.53125 2.22265625 C-7.5921217 10.48632562 -13.30271073 22.05887561 -16 34 C-16.33 34 -16.66 34 -17 34 C-17.5696184 22.79275794 -11.9211861 13.30790085 -4.83203125 4.98828125 C-3.25902343 3.28111498 -1.66167735 1.62052126 0 0 Z " fill="#F09845" transform="translate(133,429)"/>
<path d="M0 0 C0.99 0.33 1.98 0.66 3 1 C0.2046217 4.43970309 -2.51598584 7.59837123 -5.9375 10.4375 C-9.12915977 13.10807246 -11.70614969 15.96542745 -14.38671875 19.1328125 C-15.85919783 20.83703768 -17.38636694 22.43024216 -19 24 C-19.66 23.67 -20.32 23.34 -21 23 C-16.85220343 17.11759921 -12.27349454 12.0187844 -7.125 7 C-6.43664062 6.32066406 -5.74828125 5.64132812 -5.0390625 4.94140625 C-3.36392154 3.28953114 -1.6842664 1.64256075 0 0 Z " fill="#EF9948" transform="translate(159,403)"/>
<path d="M0 0 C10.66477383 1.67217708 17.89741474 10.53896651 25 18 C24.67 18.99 24.34 19.98 24 21 C20.68975479 18.39909305 17.89059773 15.95472972 15.3125 12.625 C11.97289213 8.5442492 7.79638449 6.13632932 3.29296875 3.48046875 C1 2 1 2 0 0 Z " fill="#F09B49" transform="translate(304,297)"/>
<path d="M0 0 C0 3.79297682 -1.2066141 5.12823126 -3.3125 8.25 C-7.0502888 13.97372507 -9.9611466 19.14356756 -11 26 C-11.33 26 -11.66 26 -12 26 C-11.53260332 14.595521 -7.76149276 8.19753168 0 0 Z " fill="#F19947" transform="translate(151,446)"/>
<path d="M0 0 C0 3 0 3 -2.125 5.375 C-5.01732368 8.01581728 -7.98104576 10.50608128 -11 13 C-12.01680311 13.98290968 -13.02738219 14.97334787 -14 16 C-14.33 15.01 -14.66 14.02 -15 13 C-13.61068357 11.55620057 -12.21323422 10.12022488 -10.8125 8.6875 C-10.03519531 7.88699219 -9.25789062 7.08648437 -8.45703125 6.26171875 C-6.09368203 4.08623513 -3.79063383 2.56641795 -1 1 C-0.67 0.67 -0.34 0.34 0 0 Z " fill="#F19948" transform="translate(237,328)"/>
<path d="M0 0 C-1.58667578 3.90285767 -4.13350481 6.33520982 -7.125 9.25 C-8.03507813 10.14203125 -8.94515625 11.0340625 -9.8828125 11.953125 C-10.58148438 12.62859375 -11.28015625 13.3040625 -12 14 C-12.66 13.34 -13.32 12.68 -14 12 C-12.04761147 9.99387601 -10.08862178 7.99507567 -8.125 6 C-7.29162109 5.14148438 -7.29162109 5.14148438 -6.44140625 4.265625 C-2.2265625 0 -2.2265625 0 0 0 Z " fill="#F09946" transform="translate(181,418)"/>
<path d="M0 0 C-1.46966358 3.39859703 -3.38037514 5.64963709 -6 8.25 C-6.70125 8.95640625 -7.4025 9.6628125 -8.125 10.390625 C-10 12 -10 12 -12 12 C-9.8988952 7.2725142 -5.81242959 0 0 0 Z " fill="#F29947" transform="translate(276,324)"/>
<path d="M0 0 C0.33 0.99 0.66 1.98 1 3 C-0.98 4.98 -2.96 6.96 -5 9 C-5.99 8.67 -6.98 8.34 -8 8 C-3.375 2.25 -3.375 2.25 0 0 Z " fill="#F09A49" transform="translate(242,356)"/>
<path d="M0 0 C4.03620153 1.34540051 4.85167306 3.41945509 7 7 C7.33 7.99 7.66 8.98 8 10 C3.79236776 8.4972742 2.1972242 5.76667005 0 2 C0 1.34 0 0.68 0 0 Z " fill="#F19946" transform="translate(141,645)"/>
<path d="M0 0 C2.86697492 1.28519565 4.97607712 2.57129254 7 5 C7 5.66 7 6.32 7 7 C5.1875 6.875 5.1875 6.875 3 6 C1.25 2.9375 1.25 2.9375 0 0 Z " fill="#F0994A" transform="translate(353,376)"/>
<path d="M0 0 C0.66 0 1.32 0 2 0 C1.43628586 3.26954202 0.50037734 4.82575883 -2 7 C-2.99 6.67 -3.98 6.34 -5 6 C-3.38405168 3.95880212 -1.7143618 1.95927063 0 0 Z " fill="#EF9A4A" transform="translate(231,366)"/>
<path d="M0 0 C2.86697492 1.28519565 4.97607712 2.57129254 7 5 C7 5.66 7 6.32 7 7 C5.1875 6.875 5.1875 6.875 3 6 C1.25 2.9375 1.25 2.9375 0 0 Z " fill="#F19A4A" transform="translate(377,400)"/>
<path d="M0 0 C1.98 0 3.96 0 6 0 C6 0.33 6 0.66 6 1 C4.02 1 2.04 1 0 1 C0 0.67 0 0.34 0 0 Z " fill="#FBF9F7" transform="translate(434,489)"/>
<path d="M0 0 C3 1 3 1 3 1 Z " fill="#F6F7F7" transform="translate(905,712)"/>
<path d="M0 0 C0.66 0.66 1.32 1.32 2 2 C1.34 2 0.68 2 0 2 C0 1.34 0 0.68 0 0 Z " fill="#F9F8F9" transform="translate(542,707)"/>
<path d="" fill="#FBF9F8" transform="translate(0,0)"/>
<path d="" fill="#FDFDFC" transform="translate(0,0)"/>
<path d="" fill="#FEFDFD" transform="translate(0,0)"/>
<path d="" fill="#FCFBFA" transform="translate(0,0)"/>
<path d="" fill="#FBF9F5" transform="translate(0,0)"/>
<path d="M0 0 C3 1 3 1 3 1 Z " fill="#FBF9F8" transform="translate(460,489)"/>
<path d="" fill="#F8F9F9" transform="translate(0,0)"/>
<path d="M0 0 C2 1 2 1 2 1 Z " fill="#FAF9FA" transform="translate(597,703)"/>
<path d="" fill="#FBFAFA" transform="translate(0,0)"/>
<path d="M0 0 C2 1 2 1 2 1 Z " fill="#FBFDFD" transform="translate(601,689)"/>
<path d="" fill="#FBFCFB" transform="translate(0,0)"/>
<path d="M0 0 C2 1 2 1 2 1 Z " fill="#FBFDFD" transform="translate(780,668)"/>
<path d="M0 0 C2 1 2 1 2 1 Z " fill="#FCFDFE" transform="translate(676,668)"/>
<path d="M0 0 C2 1 2 1 2 1 Z " fill="#FCFDFD" transform="translate(636,668)"/>
<path d="M0 0 C2 1 2 1 2 1 Z " fill="#FEFDFF" transform="translate(569,605)"/>
<path d="" fill="#F9F3EE" transform="translate(0,0)"/>
<path d="" fill="#FDFCFC" transform="translate(0,0)"/>
<path d="M0 0 C2 1 2 1 2 1 Z " fill="#FCFCFD" transform="translate(472,517)"/>
<path d="" fill="#E5E6E6" transform="translate(0,0)"/>
<path d="M0 0 C2 1 2 1 2 1 Z " fill="#F8F9F8" transform="translate(710,489)"/>
<path d="M0 0 C2 1 2 1 2 1 Z " fill="#FCFBF9" transform="translate(347,489)"/>
<path d="" fill="#E8A163" transform="translate(0,0)"/>
<path d="" fill="#554B44" transform="translate(0,0)"/>
<path d="" fill="#E9ECEC" transform="translate(0,0)"/>
<path d="" fill="#F1F0F1" transform="translate(0,0)"/>
<path d="" fill="#F0EFED" transform="translate(0,0)"/>
<path d="" fill="#F1F2F4" transform="translate(0,0)"/>
<path d="" fill="#ECEFEF" transform="translate(0,0)"/>
<path d="" fill="#F3F4F5" transform="translate(0,0)"/>
<path d="" fill="#F5F6F7" transform="translate(0,0)"/>
<path d="" fill="#F5F7F6" transform="translate(0,0)"/>
<path d="" fill="#F7F6F8" transform="translate(0,0)"/>
<path d="" fill="#F4F6F4" transform="translate(0,0)"/>
<path d="" fill="#F8F9F9" transform="translate(0,0)"/>
<path d="" fill="#F6F7F7" transform="translate(0,0)"/>
<path d="" fill="#FAF9FB" transform="translate(0,0)"/>
<path d="" fill="#F7F7F8" transform="translate(0,0)"/>
<path d="" fill="#FAF8FB" transform="translate(0,0)"/>
<path d="" fill="#F2F5F3" transform="translate(0,0)"/>
<path d="" fill="#F5F6F5" transform="translate(0,0)"/>
<path d="" fill="#FAFBFA" transform="translate(0,0)"/>
<path d="" fill="#F4F6F4" transform="translate(0,0)"/>
<path d="" fill="#F4F4F3" transform="translate(0,0)"/>
<path d="" fill="#FAF9FA" transform="translate(0,0)"/>
<path d="" fill="#F8FBF9" transform="translate(0,0)"/>
<path d="" fill="#F6F6F8" transform="translate(0,0)"/>
<path d="" fill="#F5F8F7" transform="translate(0,0)"/>
<path d="" fill="#FCFBFB" transform="translate(0,0)"/>
<path d="" fill="#F5F4F8" transform="translate(0,0)"/>
<path d="" fill="#FCFCFC" transform="translate(0,0)"/>
<path d="" fill="#FAFAF9" transform="translate(0,0)"/>
<path d="" fill="#FCFCFC" transform="translate(0,0)"/>
<path d="" fill="#F9FCFB" transform="translate(0,0)"/>
<path d="" fill="#FEFDFE" transform="translate(0,0)"/>
<path d="" fill="#FBFAFA" transform="translate(0,0)"/>
<path d="" fill="#FEFDFF" transform="translate(0,0)"/>
<path d="" fill="#FDFCFC" transform="translate(0,0)"/>
<path d="" fill="#FDFFFE" transform="translate(0,0)"/>
<path d="" fill="#FAFAFB" transform="translate(0,0)"/>
<path d="" fill="#F4F6F6" transform="translate(0,0)"/>
<path d="" fill="#FDFEFD" transform="translate(0,0)"/>
<path d="" fill="#FCFDFE" transform="translate(0,0)"/>
<path d="" fill="#FDFDFE" transform="translate(0,0)"/>
<path d="" fill="#E9AA6E" transform="translate(0,0)"/>
<path d="" fill="#E8A96D" transform="translate(0,0)"/>
<path d="" fill="#E8A86E" transform="translate(0,0)"/>
<path d="" fill="#E8A869" transform="translate(0,0)"/>
<path d="" fill="#E7A668" transform="translate(0,0)"/>
<path d="" fill="#E8A467" transform="translate(0,0)"/>
<path d="" fill="#E9A567" transform="translate(0,0)"/>
<path d="" fill="#E6A264" transform="translate(0,0)"/>
<path d="" fill="#E9A362" transform="translate(0,0)"/>
<path d="" fill="#E7A361" transform="translate(0,0)"/>
<path d="" fill="#E4A465" transform="translate(0,0)"/>
<path d="" fill="#E19E61" transform="translate(0,0)"/>
<path d="" fill="#F3F4F4" transform="translate(0,0)"/>
<path d="" fill="#FBFBFB" transform="translate(0,0)"/>
<path d="" fill="#FEFCFD" transform="translate(0,0)"/>
<path d="" fill="#E8B585" transform="translate(0,0)"/>
<path d="" fill="#FDFCFB" transform="translate(0,0)"/>
<path d="" fill="#FDFEFE" transform="translate(0,0)"/>
<path d="" fill="#ECEDED" transform="translate(0,0)"/>
<path d="" fill="#FCFDFB" transform="translate(0,0)"/>
<path d="" fill="#F2F3F4" transform="translate(0,0)"/>
<path d="" fill="#FAFBFC" transform="translate(0,0)"/>
<path d="" fill="#FAFDFD" transform="translate(0,0)"/>
<path d="" fill="#FDFCFE" transform="translate(0,0)"/>
<path d="" fill="#FDFCFE" transform="translate(0,0)"/>
<path d="" fill="#FCFDFE" transform="translate(0,0)"/>
<path d="" fill="#FDFDFE" transform="translate(0,0)"/>
<path d="" fill="#FEFEFE" transform="translate(0,0)"/>
<path d="" fill="#FDFDFE" transform="translate(0,0)"/>
<path d="" fill="#FDFDFE" transform="translate(0,0)"/>
<path d="" fill="#FDFDFE" transform="translate(0,0)"/>
<path d="" fill="#FDFDFC" transform="translate(0,0)"/>
<path d="" fill="#FDFCFD" transform="translate(0,0)"/>
<path d="" fill="#FBFCFC" transform="translate(0,0)"/>
<path d="" fill="#F1F2F1" transform="translate(0,0)"/>
<path d="" fill="#F3F2F4" transform="translate(0,0)"/>
<path d="" fill="#DF9B5D" transform="translate(0,0)"/>
<path d="" fill="#EEC193" transform="translate(0,0)"/>
<path d="" fill="#FEFEFF" transform="translate(0,0)"/>
<path d="" fill="#FFFFFF" transform="translate(0,0)"/>
<path d="" fill="#FDFBF8" transform="translate(0,0)"/>
<path d="" fill="#F5F0EB" transform="translate(0,0)"/>
<path d="" fill="#F8F3EC" transform="translate(0,0)"/>
<path d="" fill="#FEFEFF" transform="translate(0,0)"/>
<path d="" fill="#FEFDFD" transform="translate(0,0)"/>
<path d="" fill="#FEFFFF" transform="translate(0,0)"/>
<path d="" fill="#FDFCFC" transform="translate(0,0)"/>
<path d="" fill="#FFFFFF" transform="translate(0,0)"/>
<path d="" fill="#FFFFFF" transform="translate(0,0)"/>
<path d="" fill="#FFFFFE" transform="translate(0,0)"/>
<path d="" fill="#FFFFFF" transform="translate(0,0)"/>
<path d="" fill="#FCFFFE" transform="translate(0,0)"/>
<path d="" fill="#FFFDFF" transform="translate(0,0)"/>
<path d="" fill="#FFFFFF" transform="translate(0,0)"/>
<path d="" fill="#FEFFFE" transform="translate(0,0)"/>
<path d="" fill="#FEFEFD" transform="translate(0,0)"/>
<path d="" fill="#FDFEFD" transform="translate(0,0)"/>
<path d="" fill="#FFFFFE" transform="translate(0,0)"/>
<path d="" fill="#F9F9FA" transform="translate(0,0)"/>
<path d="" fill="#FCFEFD" transform="translate(0,0)"/>
<path d="" fill="#FEFEFD" transform="translate(0,0)"/>
<path d="" fill="#FDFEFD" transform="translate(0,0)"/>
<path d="" fill="#F5F6F6" transform="translate(0,0)"/>
<path d="" fill="#FEFDFC" transform="translate(0,0)"/>
<path d="" fill="#FDFCFC" transform="translate(0,0)"/>
<path d="" fill="#FCFEFD" transform="translate(0,0)"/>
<path d="" fill="#FDFDFD" transform="translate(0,0)"/>
<path d="" fill="#FEFDFD" transform="translate(0,0)"/>
<path d="" fill="#FFFEFD" transform="translate(0,0)"/>
<path d="" fill="#FCFCFD" transform="translate(0,0)"/>
<path d="" fill="#FDFDFD" transform="translate(0,0)"/>
<path d="" fill="#FAFBFC" transform="translate(0,0)"/>
<path d="" fill="#FEFEFC" transform="translate(0,0)"/>
<path d="" fill="#FAFAFA" transform="translate(0,0)"/>
<path d="" fill="#FBFCFD" transform="translate(0,0)"/>
<path d="" fill="#F6F7F6" transform="translate(0,0)"/>
<path d="" fill="#F5F6F6" transform="translate(0,0)"/>
<path d="" fill="#F9F8F7" transform="translate(0,0)"/>
<path d="" fill="#FAF9F6" transform="translate(0,0)"/>
<path d="" fill="#FAF9F8" transform="translate(0,0)"/>
<path d="" fill="#F9F8F6" transform="translate(0,0)"/>
<path d="" fill="#FBF9F7" transform="translate(0,0)"/>
<path d="" fill="#FAF9F7" transform="translate(0,0)"/>
<path d="" fill="#FAF9F6" transform="translate(0,0)"/>
<path d="" fill="#FAF8F6" transform="translate(0,0)"/>
<path d="" fill="#FCFBF9" transform="translate(0,0)"/>
<path d="" fill="#FBFBF9" transform="translate(0,0)"/>
<path d="" fill="#FBFAF7" transform="translate(0,0)"/>
<path d="" fill="#FBFAF7" transform="translate(0,0)"/>
<path d="" fill="#F8FAFA" transform="translate(0,0)"/>
<path d="" fill="#F8FAFA" transform="translate(0,0)"/>
<path d="" fill="#F8F5F1" transform="translate(0,0)"/>
<path d="" fill="#E09D62" transform="translate(0,0)"/>
<path d="" fill="#E59C5E" transform="translate(0,0)"/>
<path d="" fill="#EBBF93" transform="translate(0,0)"/>
<path d="" fill="#F0BC8C" transform="translate(0,0)"/>
<path d="" fill="#EEBA8A" transform="translate(0,0)"/>
<path d="" fill="#E8A163" transform="translate(0,0)"/>
<path d="" fill="#ECB381" transform="translate(0,0)"/>
<path d="" fill="#E4B588" transform="translate(0,0)"/>
<path d="" fill="#ECB27D" transform="translate(0,0)"/>
<path d="" fill="#EBB079" transform="translate(0,0)"/>
<path d="" fill="#EBB279" transform="translate(0,0)"/>
<path d="" fill="#EBB077" transform="translate(0,0)"/>
<path d="" fill="#E39D5E" transform="translate(0,0)"/>
<path d="" fill="#EBAD74" transform="translate(0,0)"/>
<path d="" fill="#EBAB74" transform="translate(0,0)"/>
<path d="" fill="#EBAA73" transform="translate(0,0)"/>
<path d="" fill="#EBA365" transform="translate(0,0)"/>
<path d="" fill="#EAA466" transform="translate(0,0)"/>
<path d="" fill="#EBA767" transform="translate(0,0)"/>
<path d="" fill="#E29D5E" transform="translate(0,0)"/>
<path d="" fill="#EAA264" transform="translate(0,0)"/>
<path d="" fill="#E8A365" transform="translate(0,0)"/>
<path d="" fill="#E9A266" transform="translate(0,0)"/>
<path d="" fill="#E8A165" transform="translate(0,0)"/>
<path d="" fill="#DC9A5E" transform="translate(0,0)"/>
<path d="" fill="#53463D" transform="translate(0,0)"/>
</svg>
